<svg xmlns="http://www.w3.org/2000/svg" width="103" height="24" fill="none">
  <path fill="#303A41" fill-rule="evenodd" d="M16.891 2.023c.452-.988 1.597-1.798 2.58-1.798 1 0 1.436.81 1 1.798-.435.989-1.596 1.783-2.58 1.783s-1.436-.794-1-1.783zm-4.104 9.395c-1.45 1.457-2.924 2.929-3.525 3.502-1.403 1.328-2.274 1.717-2.952 1.717-1.064 0-1.548-.777-.629-2.463.08-.161.218-.414.396-.739l.233-.427c-1.726 1.912-3.726 3.63-4.774 3.63-1.614 0-1.952-1.735-1.033-3.436.661-1.215 3.904-7.307 3.904-7.307L6.97 5.88s-2.306 4.31-3 5.622c-.242.438-.726 1.458.21 1.458.903 0 3.63-2.883 4.597-4.569.742-1.409 1.323-2.495 1.323-2.495l2.565-.016s-2.307 4.31-3 5.622c-.243.438-.678 1.329-.55 1.458.119.133.45-.15.825-.472l.111-.095c.415-.35 2.787-2.6 4.462-4.214l1.216-2.283 2.564-.016s-2.306 4.31-3 5.622c-.242.438-.678 1.329-.549 1.458.118.133.45-.15.825-.472l.111-.095c.264-.223 1.32-1.214 2.484-2.322.34-1.078.933-2.265 1.839-3.543C23.31 1.861 27.246.663 29.085.663c3.614 0 3.371 4.406.71 6.188-.774.519-1.839-.55-1.839-.55 2.436-1.88 2.774-4.197 1.161-4.197-1.258 0-4.178 1.702-6.403 5.33-2.226 3.63-2.275 6.61.451 6.61 2.274 0 4.178-1.846 5.5-3.482h-1.967a.362.362 0 0 1-.307-.195.383.383 0 0 1 0-.373l.613-1.02a.643.643 0 0 1 .581-.324h3.484l1.259-.017s-.823 1.556-1.533 2.868c-.226.438-.661 1.329-.532 1.458.122.139.477-.176.858-.513l.061-.054c.445-.366 3.022-2.809 4.702-4.43-.806-.6-1.634-1.85-.606-3.152.935-1.166 2.339-.94 3.13-.421.843.543.1 1.607-.85 2.647.003.03.004.06.005.09.087.094.188.175.312.244.403.231.843.3 1.217.36.78.122 1.271.2.541 1.6-.183.352-.306.562-.45.807-.175.297-.38.646-.76 1.364-.242.438-.661 1.329-.532 1.458.123.139.478-.176.86-.514l.06-.053c.279-.23 1.395-1.278 2.602-2.428 2.133-3.049 4.044-4.085 5.381-4.085.92 0 1.597.86 1.79 1.815.565-1.053.952-1.798.952-1.798l2.565-.017s-2.306 4.31-3 5.622c-.242.438-.678 1.329-.549 1.458s.431-.132.788-.44l.148-.127c.28-.23 1.395-1.277 2.6-2.426 2.134-3.05 4.046-4.087 5.384-4.087.92 0 1.596.843 1.79 1.799A7614.88 7614.88 0 0 1 62.988.662h2.549s-5.065 9.527-5.759 10.84c-.242.437-.677 1.328-.548 1.457.128.129.43-.132.788-.44l.148-.127c.428-.352 2.817-2.623 4.49-4.239l1.202-2.258 2.565-.016s-2.306 4.31-3 5.622c-.242.438-.677 1.329-.549 1.458.118.133.45-.151.825-.472l.111-.095c.3-.253 1.619-1.496 2.96-2.774 1.753-2.595 3.819-3.739 5.169-3.739 2.34 0 3.79 2.236 1.484 5.136-1.387 1.734-2.984 2.495-4.388 2.058a2.014 2.014 0 0 1-.854-.486c-.275 1.296.29 2.122 1.677 2.122 1.69 0 3.636-1.4 5.6-3.478l2.852-5.336h2.549l-2.63 4.926c3.242-4.245 5.582-4.942 6.34-4.942 1.258 0 2.242.713 1.016 3.062a99.482 99.482 0 0 1-1.355 2.56c-.226.438-.661 1.329-.532 1.458.122.139.477-.175.858-.512l.061-.055c.424-.35 2.786-2.586 4.462-4.2l.553-1.033h-1.87c.273-.518.435-.81.435-.81h1.855c1.597-2.997 2.097-3.872 2.097-3.872h2.565S96.1 3.53 94.617 6.349l1.92-.016-.436.826h-1.92c-.68 1.284-1.32 2.487-1.766 3.325-.252.473-.442.83-.54 1.017-.243.438-.678 1.329-.549 1.458.118.133.45-.15.825-.472l.11-.095 1.014-.842c1.506-1.247 4.2-3.478 5.363-4.503.456-1.053 1.197-1.82 2.543-1.913 2.823-.194-.145 2.35-.145 2.35l-.645 3.24c-.065.405-.162.793-.258 1.15l-.113.389c1.21-.243 2.323-.033 2.323 1.15 0 2.317-1.839 5.865-7.614 5.865-.549 0-78.674.387-83.69 4.048-1.871-1.312-7.985-4.698-7.985-4.698s89.513-.711 91.788-.711c4.5 0 6.726-2.64 6.726-3.856 0-.923-.838-.858-1.968-.567-1.096 2.64-2.694 3.143-4.29 3.143-1 0-2.42-.324-2.162-1.734.174-1.002 1.724-1.405 3.531-1.876.208-.053.418-.108.63-.165.162-.486.291-1.07.436-1.83.05-.28.096-.568.143-.859v-.001c.065-.401.13-.806.206-1.204-.591.53-1.337 1.196-2.118 1.892l-.011.01-.011.01-.003.003c-1.813 1.616-3.805 3.393-4.48 4.037-1.403 1.328-2.274 1.717-2.952 1.717-1.064 0-1.548-.777-.629-2.463.112-.207.392-.734.781-1.465l.685-1.286c-1.445 1.455-2.913 2.924-3.513 3.497-1.404 1.328-2.29 1.717-2.952 1.717-1.065 0-1.549-.777-.63-2.463.318-.583.591-1.103.871-1.637l.001-.001c.303-.578.615-1.17 1-1.877.661-1.248.87-1.96.323-1.96-.936 0-5.243 4.05-7.34 7.938h-2.549l.986-1.843c-1.447 1.115-2.98 1.843-4.501 1.843-2.966 0-4.16-1.725-3.638-4.086a186.92 186.92 0 0 1-2.394 2.369c-1.404 1.328-2.275 1.717-2.952 1.717-1.065 0-1.549-.777-.63-2.463.227-.416.818-1.52 1.496-2.79-1.46 1.468-2.953 2.958-3.559 3.536-1.387 1.328-2.275 1.717-2.952 1.717-.903 0-1.387-.55-.952-1.75-.951.956-2.096 1.75-3.21 1.75-1.589 0-2.373-1.36-1.815-3.44-.76.758-1.4 1.39-1.748 1.723-1.388 1.328-2.275 1.717-2.952 1.717-.904 0-1.387-.55-.952-1.75-.951.956-2.097 1.75-3.21 1.75-1.587 0-2.372-1.356-1.818-3.43-.756.752-1.395 1.382-1.746 1.713-1.387 1.328-2.29 1.717-2.952 1.717-1.065 0-1.532-.777-.629-2.463.215-.394.454-.848.705-1.325.523-.992 1.1-2.088 1.634-2.984.486-.814.341-1.186.062-1.395-1.539 1.564-5.363 5.43-6.432 6.45-1.403 1.328-2.274 1.717-2.952 1.717-.887 0-1.371-.534-.984-1.669-1.29.989-2.759 1.67-4.34 1.67-2.413 0-4.421-1.724-4.32-4.614a228.984 228.984 0 0 1-2.921 2.896c-1.404 1.328-2.275 1.717-2.952 1.717-1.065 0-1.549-.777-.63-2.463.225-.412.807-1.5 1.478-2.756zM67.02 2.023c.452-.988 1.597-1.798 2.58-1.798 1 0 1.437.81 1 1.798-.435.989-1.596 1.783-2.58 1.783s-1.436-.794-1-1.783zm-20.258 8.879c1.049-1.75 1.21-3.176.387-3.176-.839 0-2.355 1.426-3.404 3.176-1.032 1.75-1.193 3.175-.37 3.175.838 0 2.355-1.425 3.387-3.175zm24.04.162c.033-.054.065-.104.089-.162 1.048-1.766 2.564-3.176 3.403-3.176.823 0-.048 1.896-1.08 2.77-.759.633-1.662 1.248-2.453.633l.04-.065zm25.846 3.289c-.935.291-1.645.55-1.71.89-.112.6.694.47 1.097-.08.068-.091.138-.178.21-.267.131-.164.267-.333.403-.543zM57.827 7.726c.822 0 .661 1.426-.387 3.176-1.033 1.75-2.55 3.175-3.388 3.175-.823 0-.661-1.425.37-3.175 1.05-1.75 2.566-3.176 3.405-3.176z" clip-rule="evenodd"/>
</svg>