<svg xmlns="http://www.w3.org/2000/svg" width="119" height="28" fill="none">
  <path fill="#303A41" fill-rule="evenodd" d="M19.58 2.31c.524-1.146 1.852-2.085 2.993-2.085 1.159 0 1.664.94 1.159 2.085-.505 1.146-1.852 2.066-2.992 2.066s-1.664-.92-1.16-2.066zM14.824 13.2c-1.681 1.69-3.39 3.395-4.086 4.06C9.11 18.8 8.1 19.25 7.315 19.25c-1.234 0-1.795-.9-.73-2.854.094-.188.254-.48.46-.857l.27-.496c-2 2.217-4.32 4.208-5.535 4.208-1.87 0-2.263-2.01-1.197-3.982.767-1.409 4.526-8.47 4.526-8.47l2.972-.02s-2.674 4.996-3.478 6.518c-.28.507-.84 1.69.244 1.69 1.047 0 4.207-3.343 5.329-5.296.86-1.634 1.533-2.893 1.533-2.893l2.973-.018s-2.674 4.995-3.478 6.517c-.28.507-.785 1.54-.636 1.69.137.154.521-.175.956-.547l.13-.11c.48-.407 3.229-3.014 5.171-4.885l1.41-2.647 2.972-.018s-2.674 4.995-3.478 6.517c-.28.507-.785 1.54-.636 1.69.137.154.521-.175.956-.547l.129-.11c.306-.259 1.53-1.408 2.88-2.692.393-1.25 1.081-2.626 2.131-4.107C27.023 2.122 31.585.732 33.717.732c4.188 0 3.908 5.109.822 7.175-.897.6-2.131-.639-2.131-.639 2.823-2.179 3.216-4.864 1.346-4.864-1.459 0-4.843 1.972-7.424 6.179-2.58 4.207-2.636 7.663.524 7.663 2.636 0 4.843-2.141 6.376-4.038h-2.28a.419.419 0 0 1-.356-.226.444.444 0 0 1 0-.432l.71-1.183c.131-.244.393-.376.674-.376h4.039l1.458-.019s-.954 1.803-1.776 3.325c-.262.507-.767 1.54-.617 1.69.142.16.553-.204.995-.595l.07-.062c.517-.425 3.503-3.257 5.451-5.137-.934-.694-1.894-2.145-.702-3.653 1.084-1.352 2.71-1.09 3.627-.488.978.63.117 1.863-.983 3.068l.005.106c.1.107.217.201.36.282.468.268.978.348 1.412.416.903.142 1.474.232.627 1.856-.212.409-.354.651-.522.936-.202.344-.44.749-.88 1.58-.28.508-.767 1.54-.617 1.691.142.16.554-.204.996-.596l.07-.061c.323-.267 1.617-1.482 3.016-2.815C50.48 7.98 52.695 6.78 54.246 6.78c1.066 0 1.85.995 2.075 2.103.655-1.22 1.104-2.085 1.104-2.085l2.973-.018s-2.674 4.996-3.479 6.517c-.28.507-.785 1.54-.635 1.69.148.149.5-.154.913-.51l.171-.147c.324-.267 1.617-1.481 3.015-2.813 2.473-3.536 4.69-4.737 6.24-4.737 1.066 0 1.851.976 2.076 2.084 2.132-4.019 4.32-8.132 4.32-8.132h2.954S70.1 11.776 69.297 13.297c-.28.507-.785 1.54-.636 1.69.149.149.5-.154.914-.51l.171-.147c.496-.409 3.266-3.041 5.206-4.914.794-1.49 1.393-2.618 1.393-2.618l2.974-.018s-2.674 4.995-3.478 6.517c-.28.507-.786 1.54-.636 1.69.136.154.521-.175.956-.547l.129-.11c.347-.294 1.876-1.735 3.43-3.217 2.033-3.008 4.428-4.333 5.993-4.333 2.712 0 4.394 2.592 1.72 5.953-1.608 2.01-3.459 2.893-5.086 2.386a2.332 2.332 0 0 1-.99-.564c-.319 1.503.336 2.46 1.944 2.46 1.958 0 4.214-1.622 6.49-4.03l3.307-6.187h2.954l-3.047 5.71c3.758-4.92 6.47-5.728 7.348-5.728 1.459 0 2.599.826 1.179 3.55-.449.882-.749 1.445-1.571 2.967-.262.507-.767 1.54-.617 1.69.142.16.553-.204.994-.594l.072-.063c.491-.406 3.229-2.999 5.172-4.868.213-.398.427-.8.642-1.199h-2.169c.317-.6.504-.939.504-.939h2.151c1.851-3.474 2.431-4.488 2.431-4.488h2.973s-.71 1.22-2.431 4.488l2.225-.018-.504.957h-2.226c-.786 1.485-1.527 2.877-2.044 3.848l-.003.007-.001.002h-.001l-.625 1.177c-.28.507-.785 1.54-.636 1.69.137.154.521-.175.957-.547l.083-.072.045-.038c.153-.13.58-.483 1.162-.966l.004-.003.005-.004.003-.002.001-.001.001-.001c1.745-1.446 4.867-4.032 6.216-5.22.529-1.22 1.387-2.11 2.948-2.217 3.272-.225-.168 2.723-.168 2.723l-.748 3.756c-.075.47-.187.92-.299 1.334l-.131.45c1.402-.281 2.692-.037 2.692 1.334 0 2.686-2.131 6.799-8.826 6.799-.636 0-91.2.448-97.016 4.693-2.17-1.521-9.256-5.447-9.256-5.447s103.767-.824 106.403-.824c5.217 0 7.798-3.061 7.798-4.47 0-1.07-.973-.995-2.281-.657-1.272 3.061-3.123 3.643-4.975 3.643-1.159 0-2.804-.375-2.505-2.01.201-1.162 1.998-1.629 4.093-2.174h.003c.24-.063.483-.126.728-.192.187-.563.337-1.24.505-2.122.058-.325.111-.658.165-.995l.001-.001v-.001c.074-.464.15-.934.238-1.395-.691.62-1.565 1.4-2.478 2.214l-.004.004-.002.002h-.001l-.002.002c-2.101 1.873-4.409 3.932-5.19 4.678-1.627 1.54-2.637 1.99-3.422 1.99-1.234 0-1.795-.9-.73-2.854.13-.241.455-.851.905-1.698l.794-1.492c-1.674 1.687-3.377 3.39-4.072 4.054-1.627 1.54-2.655 1.99-3.422 1.99-1.234 0-1.795-.9-.73-2.854.37-.678.686-1.28 1.011-1.9.351-.67.712-1.357 1.159-2.176.767-1.446 1.01-2.273.374-2.273-1.085 0-6.078 4.696-8.508 9.204H86.44l1.142-2.137c-1.676 1.293-3.453 2.136-5.217 2.136-3.439 0-4.823-2-4.216-4.736a215.61 215.61 0 0 1-2.777 2.746c-1.627 1.54-2.636 1.99-3.422 1.99-1.234 0-1.795-.9-.729-2.854.263-.483.947-1.762 1.733-3.235-1.693 1.702-3.424 3.429-4.125 4.098-1.608 1.54-2.637 1.991-3.422 1.991-1.047 0-1.608-.638-1.103-2.028-1.104 1.108-2.431 2.028-3.722 2.028-1.842 0-2.752-1.576-2.104-3.987a159.66 159.66 0 0 1-2.027 1.996c-1.608 1.54-2.637 1.991-3.422 1.991-1.047 0-1.608-.638-1.103-2.028-1.103 1.108-2.431 2.028-3.721 2.028-1.84 0-2.75-1.572-2.108-3.977-.876.874-1.617 1.603-2.024 1.987-1.608 1.54-2.655 1.99-3.422 1.99-1.234 0-1.776-.9-.729-2.854.25-.458.526-.983.818-1.537.605-1.15 1.275-2.42 1.893-3.46.564-.942.396-1.374.072-1.616-1.783 1.813-6.217 6.295-7.456 7.477-1.627 1.54-2.637 1.99-3.422 1.99-1.029 0-1.59-.62-1.14-1.934-1.497 1.146-3.199 1.935-5.03 1.935-2.8 0-5.127-1.998-5.01-5.348a265.03 265.03 0 0 1-3.386 3.357c-1.627 1.54-2.637 1.99-3.422 1.99-1.234 0-1.795-.9-.73-2.854.26-.479.935-1.739 1.713-3.195zM77.692 2.31c.524-1.146 1.851-2.085 2.992-2.085 1.16 0 1.664.94 1.16 2.085-.506 1.146-1.852 2.066-2.993 2.066-1.14 0-1.664-.92-1.16-2.066zM54.208 12.602c1.216-2.029 1.403-3.681.449-3.681-.972 0-2.73 1.652-3.946 3.68-1.196 2.03-1.383 3.682-.43 3.682.973 0 2.73-1.653 3.927-3.681zm27.868.188c.04-.062.076-.12.103-.188 1.215-2.047 2.973-3.681 3.945-3.681.954 0-.056 2.197-1.253 3.211-.878.733-1.925 1.447-2.842.733l.047-.075zm29.962 3.812c-1.084.338-1.907.639-1.982 1.033-.131.695.804.545 1.272-.094.078-.105.159-.206.242-.308a7.3 7.3 0 0 0 .468-.63zM67.035 8.921c.953 0 .767 1.652-.45 3.68-1.196 2.03-2.954 3.682-3.926 3.682-.954 0-.767-1.653.43-3.681 1.216-2.029 2.973-3.681 3.946-3.681z" clip-rule="evenodd"/>
</svg>