<svg xmlns="http://www.w3.org/2000/svg" width="86" height="87" viewBox="0 0 86 87">
  <path fill="#0B0B0A" fill-rule="evenodd" d="M1765.25,4773.979 L1700.75,4773.979 C1694.84,4773.979 1690,4778.809 1690,4784.729 L1690,4849.229 C1690,4855.139 1694.84,4859.979 1700.75,4859.979 L1733.37,4859.979 L1733.37,4829.139 L1723.07,4829.139 L1723.07,4815.709 L1733.37,4815.709 L1733.37,4808.979 C1733.37,4798.599 1741.03,4790.479 1750.81,4790.479 L1760.3,4790.479 L1760.3,4805.639 L1751.81,4805.639 C1749.59,4805.639 1748.94,4806.919 1748.94,4808.679 L1748.94,4815.709 L1760.3,4815.709 L1760.3,4829.139 L1748.94,4829.139 L1748.94,4859.979 L1765.25,4859.979 C1771.16,4859.979 1776,4855.139 1776,4849.229 L1776,4784.729 C1776,4778.809 1771.16,4773.979 1765.25,4773.979" transform="translate(-1690 -4773)"/>
</svg>
