<svg xmlns="http://www.w3.org/2000/svg" width="92" height="75" viewBox="0 0 92 75">
  <path fill="#0B0B0A" fill-rule="evenodd" d="M1947,4788.85 C1943.61,4790.35 1939.97,4791.37 1936.16,4791.82 C1940.05,4789.49 1943.05,4785.79 1944.46,4781.38 C1940.81,4783.54 1936.77,4785.12 1932.47,4785.96 C1929.03,4782.29 1924.12,4780 1918.69,4780 C1908.27,4780 1899.82,4788.45 1899.82,4798.88 C1899.82,4800.36 1899.98,4801.8 1900.31,4803.18 C1884.62,4802.39 1870.71,4794.88 1861.4,4783.46 C1859.78,4786.24 1858.85,4789.49 1858.85,4792.95 C1858.85,4799.49 1862.18,4805.27 1867.24,4808.66 C1864.15,4808.56 1861.24,4807.71 1858.69,4806.3 L1858.69,4806.53 C1858.69,4815.68 1865.2,4823.31 1873.83,4825.04 C1872.25,4825.47 1870.58,4825.7 1868.86,4825.7 C1867.64,4825.7 1866.46,4825.59 1865.31,4825.36 C1867.71,4832.86 1874.68,4838.32 1882.94,4838.47 C1876.48,4843.54 1868.34,4846.55 1859.5,4846.55 C1857.98,4846.55 1856.47,4846.46 1855,4846.29 C1863.35,4851.64 1873.27,4854.77 1883.93,4854.77 C1918.65,4854.77 1937.64,4826.01 1937.64,4801.06 C1937.64,4800.25 1937.62,4799.43 1937.58,4798.62 C1941.27,4795.96 1944.47,4792.64 1947,4788.85" transform="translate(-1855 -4780)"/>
</svg>
