<svg width="14" height="14" viewBox="0 0 14 14" fill="none" xmlns="http://www.w3.org/2000/svg">
<path fill-rule="evenodd" clip-rule="evenodd" d="M12.1333 8.16667H10.0333C8.75 8.16667 8.16667 8.75 8.16667 10.0333V12.1333C8.16667 13.4167 8.75 14 10.0333 14H12.1333C13.4167 14 14 13.4167 14 12.1333V10.0333C14 8.75 13.4167 8.16667 12.1333 8.16667ZM3.96667 8.16667H1.86667C0.583333 8.16667 0 8.75 0 10.0333V12.1333C0 13.4167 0.583333 14 1.86667 14H3.96667C5.25 14 5.83333 13.4167 5.83333 12.1333V10.0333C5.83333 8.75 5.25 8.16667 3.96667 8.16667ZM12.1333 0H10.0333C8.75 0 8.16667 0.583333 8.16667 1.86667V3.96667C8.16667 5.25 8.75 5.83333 10.0333 5.83333H12.1333C13.4167 5.83333 14 5.25 14 3.96667V1.86667C14 0.583333 13.4167 0 12.1333 0ZM3.96667 0H1.86667C0.583333 0 0 0.583333 0 1.86667V3.96667C0 5.25 0.583333 5.83333 1.86667 5.83333H3.96667C5.25 5.83333 5.83333 5.25 5.83333 3.96667V1.86667C5.83333 0.583333 5.25 0 3.96667 0Z" fill="black"/>
</svg>
