<svg xmlns="http://www.w3.org/2000/svg" fill="none" viewBox="0 0 114 26">
  <defs/>
  <path fill="currentColor" fill-rule="evenodd" d="M18.768 2.248C19.27 1.15 20.542.25 21.635.25c1.111 0 1.595.9 1.111 1.998-.483 1.098-1.774 1.98-2.867 1.98-1.094 0-1.595-.881-1.111-1.98zm-4.56 10.44c-1.612 1.618-3.25 3.253-3.917 3.89-1.56 1.476-2.527 1.908-3.28 1.908-1.183 0-1.72-.864-.699-2.737.09-.18.243-.46.44-.82l.26-.476c-1.918 2.125-4.14 4.033-5.306 4.033-1.792 0-2.169-1.927-1.147-3.817.735-1.35 4.337-8.118 4.337-8.118l2.85-.018s-2.563 4.788-3.334 6.246c-.268.486-.806 1.62.233 1.62 1.004 0 4.033-3.204 5.108-5.076.825-1.566 1.47-2.772 1.47-2.772l2.85-.018s-2.563 4.788-3.334 6.246c-.269.486-.753 1.476-.61 1.62.132.148.5-.167.917-.524l.123-.106c.461-.39 3.096-2.889 4.958-4.682l1.35-2.536 2.85-.018s-2.563 4.788-3.334 6.246c-.268.486-.752 1.476-.61 1.62.132.148.5-.167.917-.524l.123-.106c.294-.248 1.467-1.35 2.76-2.58.377-1.198 1.037-2.517 2.043-3.936C25.901 2.068 30.273.736 32.316.736c4.016 0 3.747 4.897.79 6.877-.86.576-2.044-.612-2.044-.612 2.706-2.088 3.083-4.663 1.29-4.663-1.397 0-4.641 1.89-7.115 5.923-2.473 4.032-2.527 7.345.502 7.345 2.527 0 4.642-2.053 6.112-3.871h-2.187a.402.402 0 01-.34-.216.425.425 0 010-.414l.68-1.134c.126-.234.377-.36.646-.36h3.871l1.398-.018s-.914 1.728-1.702 3.186c-.251.486-.735 1.476-.592 1.62.136.154.531-.195.954-.57l.068-.06c.494-.407 3.357-3.121 5.224-4.923-.896-.665-1.816-2.056-.673-3.501 1.039-1.296 2.598-1.044 3.477-.468.937.603.112 1.785-.943 2.94l.005.102c.097.103.208.193.346.27.448.257.937.334 1.352.4.866.135 1.413.221.602 1.778-.203.392-.34.624-.5.897-.195.33-.423.718-.844 1.515-.27.486-.735 1.476-.592 1.62.136.154.532-.196.955-.57l.067-.06c.31-.255 1.55-1.42 2.891-2.698 2.37-3.387 4.493-4.538 5.98-4.538 1.021 0 1.774.954 1.99 2.016.626-1.17 1.057-1.998 1.057-1.998l2.85-.018s-2.564 4.788-3.334 6.246c-.27.486-.753 1.476-.61 1.62.142.143.48-.147.876-.489l.164-.14c.31-.256 1.55-1.42 2.89-2.697 2.37-3.389 4.494-4.54 5.98-4.54 1.022 0 1.775.936 1.99 1.998 2.043-3.853 4.14-7.795 4.14-7.795h2.832S67.19 11.321 66.42 12.78c-.269.486-.752 1.476-.61 1.62.143.143.48-.147.876-.489l.165-.14c.475-.393 3.13-2.915 4.99-4.71l1.335-2.51 2.85-.017s-2.563 4.788-3.334 6.246c-.269.486-.753 1.476-.61 1.62.131.148.5-.168.917-.525l.124-.105c.332-.281 1.798-1.662 3.288-3.083 1.948-2.883 4.243-4.153 5.743-4.153 2.6 0 4.213 2.484 1.65 5.706-1.542 1.926-3.316 2.772-4.876 2.286a2.237 2.237 0 01-.95-.54c-.304 1.44.323 2.358 1.865 2.358 1.877 0 4.04-1.554 6.22-3.864l3.17-5.928h2.832l-2.921 5.472c3.602-4.716 6.201-5.49 7.043-5.49 1.398 0 2.492.792 1.13 3.402-.43.846-.717 1.386-1.506 2.844-.25.486-.735 1.476-.591 1.62.136.154.53-.195.953-.57l.068-.06c.472-.388 3.096-2.874 4.958-4.666l.615-1.148h-2.079c.304-.576.484-.9.484-.9h2.061c1.774-3.33 2.33-4.303 2.33-4.303h2.85s-.681 1.17-2.33 4.303l2.132-.018-.483.918h-2.133a3573.276 3573.276 0 01-2.563 4.824c-.269.486-.753 1.476-.61 1.62.131.148.5-.168.917-.525l.123-.105c.148-.125.562-.468 1.126-.935l.001-.001h.001c1.673-1.387 4.664-3.865 5.957-5.003.507-1.17 1.33-2.022 2.826-2.126 3.136-.215-.162 2.61-.162 2.61l-.717 3.601c-.071.45-.179.882-.286 1.278l-.126.432c1.344-.27 2.581-.036 2.581 1.278 0 2.575-2.043 6.517-8.459 6.517-.61 0-87.416.43-92.99 4.498-2.079-1.458-8.871-5.22-8.871-5.22s99.459-.79 101.986-.79c5 0 7.474-2.934 7.474-4.285 0-1.025-.932-.954-2.187-.63-1.219 2.934-2.993 3.493-4.768 3.493-1.11 0-2.688-.36-2.401-1.927.193-1.114 1.915-1.562 3.924-2.084.23-.06.464-.12.7-.184.179-.54.323-1.188.484-2.034.055-.312.107-.632.159-.955.071-.445.144-.896.228-1.338-.659.592-1.491 1.334-2.361 2.11l-.009.008-.01.01h-.002c-2.014 1.797-4.227 3.77-4.976 4.486-1.56 1.476-2.528 1.908-3.28 1.908-1.183 0-1.72-.864-.7-2.737.125-.23.435-.813.866-1.623l.002-.004.761-1.43c-1.605 1.617-3.237 3.25-3.903 3.886-1.56 1.476-2.545 1.908-3.28 1.908-1.183 0-1.72-.864-.7-2.737.354-.648.657-1.226.969-1.82l.002-.004c.336-.64.681-1.298 1.109-2.082.735-1.386.968-2.178.358-2.178-1.039 0-5.825 4.5-8.154 8.82h-2.832l1.094-2.047c-1.606 1.24-3.31 2.048-5 2.048-3.296 0-4.623-1.917-4.042-4.54a207.072 207.072 0 01-2.66 2.632c-1.56 1.476-2.528 1.908-3.28 1.908-1.184 0-1.722-.864-.7-2.737.252-.462.908-1.688 1.662-3.1-1.624 1.63-3.282 3.287-3.955 3.928-1.541 1.477-2.527 1.909-3.28 1.909-1.003 0-1.54-.612-1.057-1.945-1.057 1.063-2.33 1.945-3.567 1.945-1.765 0-2.637-1.512-2.017-3.822-.844.841-1.556 1.545-1.942 1.913-1.542 1.477-2.528 1.909-3.28 1.909-1.004 0-1.542-.612-1.058-1.945-1.057 1.063-2.33 1.945-3.566 1.945-1.764 0-2.636-1.507-2.02-3.812-.84.837-1.55 1.536-1.94 1.904-1.542 1.476-2.546 1.908-3.28 1.908-1.184 0-1.703-.864-.7-2.737.24-.438.505-.941.784-1.472.58-1.102 1.223-2.32 1.815-3.316.54-.904.38-1.318.07-1.55-1.71 1.738-5.96 6.033-7.148 7.167-1.559 1.476-2.527 1.908-3.28 1.908-.985 0-1.523-.594-1.093-1.855-1.434 1.099-3.065 1.855-4.821 1.855-2.682 0-4.913-1.915-4.801-5.126a254.746 254.746 0 01-3.246 3.218c-1.56 1.476-2.527 1.908-3.28 1.908-1.183 0-1.72-.864-.699-2.737.25-.458.896-1.666 1.641-3.062zm60.259-10.44C74.968 1.15 76.24.25 77.334.25c1.111 0 1.596.9 1.111 1.998-.483 1.098-1.774 1.98-2.867 1.98-1.094 0-1.595-.881-1.111-1.98zm-22.51 9.865c1.166-1.944 1.345-3.528.431-3.528-.932 0-2.617 1.584-3.782 3.528-1.147 1.944-1.326 3.528-.412 3.528.932 0 2.617-1.584 3.764-3.528zm26.711.18c.038-.06.073-.115.1-.18 1.164-1.962 2.849-3.528 3.781-3.528.914 0-.054 2.106-1.201 3.078-.842.702-1.846 1.386-2.724.702l.044-.07v-.001zm28.719 3.655c-1.039.323-1.828.611-1.9.99-.125.666.771.521 1.219-.09a11.7 11.7 0 01.232-.296c.147-.183.298-.37.449-.604zM64.252 8.584c.914 0 .735 1.584-.43 3.528-1.147 1.944-2.832 3.528-3.764 3.528-.914 0-.735-1.584.412-3.528 1.165-1.944 2.85-3.528 3.782-3.528z" clip-rule="evenodd"/>
</svg>