<svg xmlns="http://www.w3.org/2000/svg" xmlns:xlink="http://www.w3.org/1999/xlink" viewBox="0 0 114 26">
  <defs/>
  <defs>
    <path id="a" d="M.079.082h12.475v18.235H.079V.082z"/>
    <path id="c" d="M.022.082h12.476v18.235H.022V.082z"/>
  </defs>
  <g fill="none" fill-rule="evenodd">
    <path fill="currentColor" d="M18.141 8.71c-.501.523-6.416 6.5-7.85 7.867-1.56 1.477-2.527 1.909-3.28 1.909-1.183 0-1.72-.864-.699-2.737.126-.252.377-.702.7-1.296-1.918 2.124-4.14 4.033-5.306 4.033-1.792 0-2.169-1.927-1.147-3.817.735-1.35 4.337-8.119 4.337-8.119l2.85-.017s-2.563 4.788-3.334 6.246c-.268.486-.806 1.62.233 1.62 1.004 0 4.033-3.204 5.108-5.076.825-1.566 1.47-2.773 1.47-2.773l2.85-.017s-2.563 4.788-3.334 6.246c-.268.486-.753 1.476-.61 1.62.144.162.575-.234 1.04-.63.681-.576 6.112-5.76 6.775-6.462.34-.36.377 1.206.197 1.404"/>
    <g transform="translate(11.948 .168)">
      <mask id="b" fill="currentColor">
        <use xlink:href="#a"/>
      </mask>
      <path fill="currentColor" d="M6.82 2.08C7.322.982 8.594.082 9.688.082c1.11 0 1.595.9 1.11 1.998-.483 1.098-1.774 1.98-2.867 1.98s-1.595-.882-1.11-1.98m5.627 6.462c-.502.522-6.417 6.5-7.85 7.867-1.56 1.476-2.527 1.908-3.28 1.908-1.183 0-1.72-.864-.7-2.736.736-1.35 4.912-9.199 4.912-9.199l2.85-.018s-2.564 4.789-3.334 6.247c-.27.486-.753 1.476-.61 1.62.144.162.574-.234 1.04-.63.68-.576 6.111-5.76 6.775-6.463.34-.36.376 1.206.197 1.404" mask="url(#b)"/>
    </g>
    <path fill="currentColor" d="M41.619 8.71c-.502.523-6.399 6.5-7.833 7.867-1.559 1.477-2.527 1.909-3.28 1.909-.985 0-1.523-.594-1.092-1.855-1.435 1.098-3.066 1.855-4.822 1.855-4.104 0-7.151-4.483-2.366-11.233C25.901 2.068 30.273.736 32.316.736c4.016 0 3.747 4.896.79 6.877-.86.576-2.044-.612-2.044-.612 2.706-2.089 3.083-4.663 1.29-4.663-1.397 0-4.642 1.89-7.115 5.923-2.473 4.032-2.527 7.344.502 7.344 2.527 0 4.642-2.052 6.112-3.87h-2.187a.402.402 0 01-.34-.216.425.425 0 010-.414l.68-1.134c.126-.234.377-.36.646-.36h3.871l1.398-.018s-.914 1.728-1.702 3.186c-.251.486-.735 1.476-.592 1.62.143.162.574-.234 1.022-.63.699-.576 6.13-5.76 6.793-6.462.34-.36.376 1.206.179 1.404"/>
    <path fill="currentColor" d="M50.095 8.71c-.502.523-6.399 6.5-7.85 7.867-1.542 1.477-2.546 1.909-3.28 1.909-1.184 0-1.703-.864-.7-2.737.735-1.35 1.721-3.312 2.6-4.788.913-1.53-.18-1.656-.61-1.872-.968-.504-2.366-2.088-1.057-3.745 1.039-1.296 2.598-1.044 3.477-.468.95.612.09 1.819-.986 2.989.107.126.233.234.394.324 1.38.792 3.155-.126 1.954 2.178-.448.864-.574.954-1.344 2.412-.27.486-.735 1.476-.592 1.62.143.162.574-.234 1.022-.63.699-.576 6.111-5.76 6.774-6.462.359-.36.377 1.206.198 1.404"/>
    <path fill="currentColor" d="M51.958 12.113c1.165-1.944 1.344-3.528.43-3.528-.932 0-2.617 1.584-3.782 3.528-1.147 1.944-1.326 3.528-.412 3.528.932 0 2.617-1.584 3.764-3.528m10.001-3.402c-.502.522-6.417 6.498-7.85 7.866-1.542 1.477-2.528 1.909-3.28 1.909-1.004 0-1.542-.612-1.058-1.945-1.057 1.063-2.33 1.945-3.566 1.945-2.438 0-3.173-2.88-.628-6.769 2.545-3.888 4.84-5.184 6.417-5.184 1.021 0 1.774.954 1.99 2.016.626-1.17 1.057-1.998 1.057-1.998l2.85-.018s-2.564 4.788-3.335 6.246c-.268.486-.752 1.476-.609 1.62.162.162.574-.234 1.04-.63.699-.576 6.112-5.76 6.775-6.462.358-.36.376 1.206.197 1.404"/>
    <path fill="currentColor" d="M63.822 12.113c1.165-1.944 1.344-3.528.43-3.528-.932 0-2.617 1.584-3.782 3.528-1.147 1.944-1.326 3.528-.412 3.528.932 0 2.617-1.584 3.764-3.528m10-3.402c-.501.522-6.416 6.498-7.85 7.866-1.541 1.477-2.527 1.909-3.28 1.909-1.003 0-1.54-.612-1.057-1.945-1.057 1.063-2.33 1.945-3.567 1.945-2.437 0-3.172-2.88-.627-6.769 2.545-3.888 4.84-5.184 6.416-5.184 1.022 0 1.775.936 1.99 1.998 2.043-3.853 4.14-7.795 4.14-7.795h2.832S67.19 11.321 66.42 12.78c-.269.486-.752 1.476-.61 1.62.162.162.575-.234 1.04-.63.7-.576 6.112-5.76 6.775-6.462.359-.36.377 1.206.198 1.404"/>
    <g transform="translate(67.703 .168)">
      <mask id="d" fill="currentColor">
        <use xlink:href="#c"/>
      </mask>
      <path fill="currentColor" d="M6.764 2.08C7.265.982 8.538.082 9.63.082c1.111 0 1.595.9 1.111 1.998-.484 1.098-1.774 1.98-2.867 1.98-1.094 0-1.595-.882-1.111-1.98m5.627 6.462c-.501.522-6.416 6.5-7.85 7.867-1.56 1.476-2.527 1.908-3.28 1.908-1.183 0-1.72-.864-.699-2.736.735-1.35 4.91-9.199 4.91-9.199l2.85-.018S5.76 11.153 4.99 12.611c-.269.486-.753 1.476-.61 1.62.144.162.574-.234 1.04-.63.681-.576 6.112-5.76 6.775-6.463.34-.36.377 1.206.197 1.404" mask="url(#d)"/>
    </g>
    <path fill="currentColor" d="M78.767 12.113c-.036.09-.09.162-.143.252.878.684 1.882 0 2.724-.702 1.147-.972 2.115-3.078 1.201-3.078-.932 0-2.617 1.566-3.782 3.528M90.524 8.64c-2.634 4.302-7.15 9.847-11.577 9.847-4.392 0-5.288-3.403-2.832-7.345 2.007-3.204 4.462-4.608 6.04-4.608 2.599 0 4.211 2.484 1.648 5.706-1.54 1.926-3.315 2.772-4.875 2.286a2.237 2.237 0 01-.95-.54c-.304 1.44.323 2.358 1.865 2.358 3.082 0 6.936-4.194 10.377-9.036.287-.396.448 1.098.304 1.332"/>
    <path fill="currentColor" d="M103.213 8.71c-.502.523-6.398 6.5-7.832 7.867-1.56 1.477-2.545 1.909-3.28 1.909-1.183 0-1.72-.864-.7-2.737.736-1.35 1.256-2.394 2.08-3.906.735-1.386.968-2.178.358-2.178-1.039 0-5.825 4.5-8.155 8.82l.036-.053-.036.054h-2.831l6.38-11.936h2.832l-2.921 5.473c3.602-4.716 6.201-5.49 7.043-5.49 1.399 0 2.491.792 1.13 3.402-.43.846-.717 1.386-1.506 2.844-.25.486-.735 1.476-.591 1.62.143.162.573-.234 1.021-.63.7-.576 6.13-5.76 6.793-6.462.34-.36.376 1.206.18 1.404"/>
    <path fill="currentColor" d="M110.363 8.71c-.502.523-7.294 6.5-8.728 7.867-1.56 1.477-2.528 1.909-3.28 1.909-1.183 0-1.72-.864-.7-2.737.36-.666 2.277-4.284 4.159-7.794h-2.079c.304-.576.484-.9.484-.9h2.06c1.775-3.33 2.331-4.303 2.331-4.303h2.85s-.681 1.17-2.33 4.302l2.132-.017-.483.918h-2.133c-1.183 2.232-2.258 4.248-2.563 4.824-.27.486-.753 1.476-.61 1.62.144.162.574-.234 1.04-.63.681-.576 6.99-5.76 7.653-6.462.34-.36.377 1.206.197 1.404"/>
    <path fill="currentColor" d="M107.387 15.947c-1.04.324-1.828.612-1.9.99-.125.667.771.522 1.22-.09.214-.288.447-.54.68-.9m6.327-1.044c0 2.575-2.043 6.517-8.46 6.517-.61 0-87.415.43-92.988 4.498-2.08-1.458-8.872-5.22-8.872-5.22s99.459-.79 101.986-.79c5 0 7.474-2.935 7.474-4.285 0-1.026-.932-.954-2.187-.63-1.219 2.934-2.993 3.493-4.768 3.493-1.11 0-2.688-.36-2.401-1.927.215-1.242 2.33-1.656 4.624-2.268.18-.54.323-1.188.484-2.034.502-2.826.681-6.336 3.818-6.553 3.136-.215-.162 2.61-.162 2.61l-.717 3.601c-.071.45-.179.882-.286 1.278l-.126.432c1.344-.27 2.581-.036 2.581 1.278"/>
  </g>
</svg>