<svg xmlns="http://www.w3.org/2000/svg" viewBox="0 0 92 75">
  <defs/>
  <path fill="inherit" fill-rule="evenodd" d="M92 8.85c-3.39 1.5-7.03 2.52-10.84 2.97 3.89-2.33 6.89-6.03 8.3-10.44a37.754 37.754 0 01-11.99 4.58A18.843 18.843 0 0063.69 0C53.27 0 44.82 8.45 44.82 18.88c0 1.48.16 2.92.49 4.3-15.69-.79-29.6-8.3-38.91-19.72a18.809 18.809 0 00-2.55 9.49c0 6.54 3.33 12.32 8.39 15.71-3.09-.1-6-.95-8.55-2.36v.23c0 9.15 6.51 16.78 15.14 18.51-1.58.43-3.25.66-4.97.66-1.22 0-2.4-.11-3.55-.34 2.4 7.5 9.37 12.96 17.63 13.11A37.828 37.828 0 014.5 66.55c-1.52 0-3.03-.09-4.5-.26 8.35 5.35 18.27 8.48 28.93 8.48 34.72 0 53.71-28.76 53.71-53.71 0-.81-.02-1.63-.06-2.44 3.69-2.66 6.89-5.98 9.42-9.77"/>
</svg>