<svg xmlns="http://www.w3.org/2000/svg" width="26" height="26" fill="none">
  <path fill="#000" d="M24.256 6.793a12.944 12.944 0 0 0-4.731-4.731C17.533.899 15.359.318 13 .318S8.466.9 6.475 2.062a12.942 12.942 0 0 0-4.731 4.73C.58 8.785 0 10.96 0 13.319c0 2.832.826 5.38 2.48 7.642 1.653 2.262 3.789 3.828 6.406 4.697.305.056.53.017.677-.118a.662.662 0 0 0 .22-.508l-.008-.914c-.006-.576-.009-1.078-.009-1.506l-.389.067a4.96 4.96 0 0 1-.94.06 7.164 7.164 0 0 1-1.176-.12 2.629 2.629 0 0 1-1.134-.506 2.148 2.148 0 0 1-.745-1.041l-.169-.39a4.228 4.228 0 0 0-.533-.863c-.243-.316-.488-.53-.736-.643l-.119-.085a1.244 1.244 0 0 1-.22-.203.928.928 0 0 1-.152-.237c-.034-.08-.006-.144.085-.195.09-.051.253-.076.49-.076l.339.05c.226.046.505.181.838.407.333.226.606.519.82.88.26.462.573.815.94 1.058.367.242.736.364 1.109.364.372 0 .694-.029.965-.085.27-.056.524-.141.761-.254.102-.756.378-1.337.83-1.743a11.599 11.599 0 0 1-1.735-.305 6.91 6.91 0 0 1-1.591-.66 4.556 4.556 0 0 1-1.363-1.135c-.361-.45-.657-1.043-.889-1.777-.23-.733-.347-1.58-.347-2.539 0-1.366.446-2.528 1.338-3.487-.418-1.027-.378-2.178.118-3.453.327-.101.813-.025 1.456.229S8.73 6.4 9.03 6.58c.3.18.54.334.72.457a12.02 12.02 0 0 1 3.25-.44c1.117 0 2.2.147 3.25.44l.643-.406c.44-.27.96-.519 1.557-.745.598-.225 1.056-.287 1.372-.186.507 1.276.553 2.427.135 3.453.891.96 1.337 2.122 1.337 3.487 0 .96-.116 1.808-.347 2.548-.231.739-.53 1.331-.896 1.777a4.733 4.733 0 0 1-1.372 1.126 6.92 6.92 0 0 1-1.591.66c-.514.135-1.092.237-1.735.305.587.508.88 1.309.88 2.403v3.572c0 .202.07.372.212.507.14.135.363.175.668.118 2.619-.868 4.754-2.434 6.407-4.697 1.653-2.262 2.48-4.81 2.48-7.642 0-2.358-.582-4.533-1.744-6.524z"/>
</svg>