<svg xmlns="http://www.w3.org/2000/svg" width="17" height="13" fill="none">
  <path fill="#fff" fill-rule="evenodd" d="M16.138 1.539a6.655 6.655 0 0 1-1.902.516A3.297 3.297 0 0 0 15.692.24c-.64.375-1.348.65-2.103.796A3.319 3.319 0 0 0 11.172 0c-1.828 0-3.31 1.47-3.31 3.283 0 .257.028.507.086.747A9.43 9.43 0 0 1 1.123.602a3.248 3.248 0 0 0-.448 1.65c0 1.137.584 2.142 1.472 2.731a3.339 3.339 0 0 1-1.5-.41v.04A3.291 3.291 0 0 0 3.303 7.83a3.347 3.347 0 0 1-1.494.056A3.31 3.31 0 0 0 4.9 10.166a6.673 6.673 0 0 1-4.112 1.405c-.266 0-.531-.016-.789-.045A9.436 9.436 0 0 0 5.075 13c6.09 0 9.421-5 9.421-9.338 0-.141-.003-.284-.01-.425a6.671 6.671 0 0 0 1.652-1.698z" clip-rule="evenodd"/>
</svg>