<svg xmlns="http://www.w3.org/2000/svg" width="113" height="18" viewBox="0 0 113 18">
  <path fill="#000000" fill-rule="evenodd" d="M289.573009,16.8769306 C287.923283,18.3225894 283.372207,22.0480448 282.811997,22.5198001 C282.367397,22.8960001 281.956997,23.2722001 281.820197,23.1183001 C281.683397,22.9815001 282.145097,22.0410001 282.401597,21.5793001 C282.692297,21.0321002 283.718297,19.1169002 284.846897,16.9965003 L286.881797,16.9965003 C287.172497,16.4493003 287.343497,16.1244003 287.343497,16.1244003 L285.308597,16.1415003 C286.881797,13.1661004 287.531597,12.0546004 287.531597,12.0546004 L284.812697,12.0546004 C284.812697,12.0546004 284.282597,12.9780004 282.589697,16.1415003 L280.623197,16.1415003 C280.623197,16.1415003 280.452197,16.4493003 280.161497,16.9965003 L282.145097,16.9965003 C281.949714,17.3593547 281.753926,17.7234241 281.559694,18.0849626 C279.783152,19.7875109 277.277062,22.1505163 276.826998,22.5198001 C276.399498,22.8960001 275.989098,23.2722001 275.852298,23.1183001 C275.715498,22.9815001 276.177198,22.0410001 276.416598,21.5793001 C277.168998,20.1942002 277.442598,19.6812002 277.852998,18.8775002 C279.152598,16.3980003 278.109498,15.6456003 276.775698,15.6456003 C275.971998,15.6456003 273.492498,16.3809003 270.055398,20.8611002 L272.842698,15.6627003 L270.140898,15.6627003 L267.118377,21.2917204 C265.036311,23.4868814 262.972002,24.9651001 261.180498,24.9651001 C259.709898,24.9651001 259.111398,24.0930001 259.402098,22.7250001 C259.641498,22.9473001 259.932198,23.1354001 260.308398,23.2380001 C261.796098,23.6997001 263.488998,22.8960001 264.959598,21.0663002 C267.404898,18.0054002 265.865898,15.6456003 263.386398,15.6456003 C261.955125,15.6456003 259.765833,16.852242 257.90735,19.589231 C256.485178,20.9396458 255.085535,22.2524009 254.767998,22.5198001 C254.323398,22.8960001 253.912998,23.2722001 253.776198,23.1183001 C253.639398,22.9815001 254.101098,22.0410001 254.357598,21.5793001 C255.092898,20.1942002 257.538198,15.6456003 257.538198,15.6456003 L254.819298,15.6627003 C254.819298,15.6627003 254.271505,16.6877557 253.546413,18.0430798 C251.772608,19.7484972 249.236765,22.1474784 248.782998,22.5198001 C248.338398,22.8960001 247.945098,23.2722001 247.791198,23.1183001 C247.654398,22.9815001 248.116098,22.0410001 248.372598,21.5793001 C249.107898,20.1942002 254.477298,10.1394004 254.477298,10.1394004 L251.775498,10.1394004 C251.775498,10.1394004 249.774798,13.8843003 247.825398,17.5437003 C247.620198,16.5348003 246.901998,15.6456003 245.927298,15.6456003 C244.509409,15.6456003 242.484249,16.7386893 240.223745,19.954824 C238.943542,21.1690744 237.759147,22.2766424 237.462799,22.5198001 C237.018199,22.8960001 236.624899,23.2722001 236.470999,23.1183001 C236.334199,22.9815001 236.795899,22.0410001 237.052399,21.5793001 C237.787699,20.1942002 240.232999,15.6456003 240.232999,15.6456003 L237.514099,15.6627003 C237.514099,15.6627003 237.103699,16.4493003 236.505199,17.5608003 C236.299999,16.5519003 235.581799,15.6456003 234.607099,15.6456003 C233.18921,15.6456003 231.164049,16.7386893 228.903545,19.954824 C227.623342,21.1690744 226.438947,22.2766424 226.142599,22.5198001 C225.715099,22.8960001 225.304699,23.2722001 225.167899,23.1183001 C225.031099,22.9815001 225.475699,22.0410001 225.732199,21.5793001 C226.467499,20.1942002 226.587199,20.1087002 227.014699,19.2879002 C228.160399,17.0991003 226.467499,17.9712002 225.150799,17.2188003 C225.018566,17.1453376 224.911581,17.059251 224.818998,16.9605404 C224.817928,16.9293463 224.816388,16.8983425 224.814374,16.8677788 C225.821579,15.7699051 226.609656,14.6462671 225.715099,14.0724003 C224.877199,13.5252004 223.389499,13.2858004 222.397699,14.5170003 C221.308555,15.8896208 222.18506,17.2101711 223.039593,17.8426121 C221.257948,19.5540184 218.526155,22.1326367 218.054299,22.5198001 C217.626799,22.8960001 217.216399,23.2722001 217.079599,23.1183001 C216.942799,22.9815001 217.404499,22.0410001 217.643899,21.5793001 C218.396299,20.1942002 219.268399,18.5526002 219.268399,18.5526002 L217.934599,18.5697002 L214.240999,18.5697002 C213.984499,18.5697002 213.745099,18.6894002 213.625399,18.9117002 L212.975599,19.9890002 C212.907199,20.1087002 212.907199,20.2626002 212.975599,20.3823002 C213.043999,20.5020002 213.163699,20.5875002 213.300499,20.5875002 L215.386699,20.5875002 C213.984499,22.3146001 211.966699,24.2640001 209.555599,24.2640001 C206.665699,24.2640001 206.716999,21.1176002 209.076799,17.2872003 C211.436599,13.4568004 214.531699,11.6613004 215.865499,11.6613004 C217.575499,11.6613004 217.216399,14.1066003 214.634299,16.0902003 C214.634299,16.0902003 215.762899,17.2188003 216.583699,16.6716003 C219.405199,14.7906003 219.661699,10.1394004 215.831299,10.1394004 C213.881899,10.1394004 209.709499,11.4048004 206.203999,16.3296003 C205.24427,17.6775347 204.614728,18.9302664 204.255337,20.0682598 C203.020442,21.2374147 201.900931,22.2842368 201.6212,22.5198001 C201.1766,22.8960001 200.7662,23.2722001 200.6294,23.1183001 C200.4926,22.9815001 200.9543,22.0410001 201.2108,21.5793001 C201.9461,20.1942002 204.391399,15.6456003 204.391399,15.6456003 L201.6725,15.6627003 C201.6725,15.6627003 201.117508,16.7012258 200.385346,18.06975 C198.609104,19.773401 196.093132,22.1494151 195.6533,22.5198001 C195.2087,22.8960001 194.7983,23.2722001 194.6615,23.1183001 C194.5247,22.9815001 194.9864,22.0410001 195.2429,21.5793001 C195.9782,20.1942002 198.4235,15.6456003 198.4235,15.6456003 L195.7046,15.6627003 C195.7046,15.6627003 195.089,16.8084003 194.3024,18.2961002 C193.2764,20.0745002 190.3865,23.1183001 189.4289,23.1183001 C188.4371,23.1183001 188.9501,22.0410001 189.2066,21.5793001 C189.9419,20.1942002 192.3872,15.6456003 192.3872,15.6456003 L189.6683,15.6627003 C189.6683,15.6627003 186.2312,22.0923001 185.5301,23.3748001 C184.5554,25.1703 184.9145,27 186.6245,27 C187.736,27 189.8564,25.1874 191.6861,23.1696001 C191.3783,23.7339001 191.1389,24.1614001 191.0192,24.4008001 C190.0445,26.1792 190.5575,27 191.6861,27 C192.4043,27 193.3277,26.5896 194.8154,25.1874 C195.45238,24.5822691 197.016222,23.0280308 198.554013,21.4896841 C197.842702,22.8163612 197.225342,23.9649912 196.9871,24.4008001 C196.0124,26.1792 196.5254,27 197.654,27 C198.3722,27 199.2956,26.5896 200.7833,25.1874 C201.331595,24.6665198 202.56663,23.4424173 203.880663,22.1305425 C203.77338,25.181098 205.901797,27 208.461199,27 C210.136999,27 211.693099,26.2818 213.061099,25.2387 C212.650699,26.4357 213.163699,27 214.104199,27 C214.822399,27 215.745799,26.5896 217.233499,25.1874 C218.36678,24.1107832 222.422184,20.0298957 224.052672,18.3792725 C224.349642,18.5994319 224.503805,18.9925233 223.987999,19.8522002 C223.150099,21.2544002 222.209599,23.1183001 221.508499,24.4008001 C220.550899,26.1792 221.046799,27 222.175399,27 C222.876499,27 223.834099,26.5896 225.304699,25.1874 C225.67674,24.8383245 226.354743,24.1734173 227.15678,23.3779196 C226.569233,25.5682286 227.401459,27 229.083799,27 C230.263699,27 231.477799,26.1621 232.486699,25.1532 C232.024999,26.4186 232.537999,27 233.495599,27 C234.213799,27 235.154299,26.5896 236.624899,25.1874 C236.993883,24.8368651 237.673881,24.1678521 238.479667,23.3679354 C237.886907,25.5638766 238.719104,27 240.403999,27 C241.583899,27 242.797998,26.1621 243.806898,25.1532 C243.345198,26.4186 243.858198,27 244.815798,27 C245.533998,27 246.474498,26.5896 247.945098,25.1874 C248.587172,24.5774305 250.170989,23.0031148 251.720594,21.4527858 C251.000966,22.7950287 250.374346,23.9609559 250.133898,24.4008001 C249.159198,26.1792 249.672198,27 250.800798,27 C251.518998,27 252.442398,26.5896 253.930098,25.1874 C254.39991,24.7410786 255.373933,23.7784453 256.469827,22.6866883 C255.914696,25.1788824 257.180631,27 260.325498,27 C261.938912,27 263.564803,26.2314847 265.098324,25.0537862 L264.053298,27 L266.755098,27 L266.789298,26.9487 L266.755098,27 C268.978098,22.8960001 273.543798,18.6210002 274.535598,18.6210002 C275.116998,18.6210002 274.894698,19.3734002 274.193598,20.6901002 C273.406998,22.1265001 272.911098,23.1183001 272.209998,24.4008001 C271.235298,26.1792 271.748298,27 272.876898,27 C273.577998,27 274.518498,26.5896 276.006198,25.1874 C276.642605,24.5828128 278.20051,23.0308225 279.733007,21.49383 C278.950345,22.9573174 278.357949,24.067704 278.177898,24.4008001 C277.203198,26.1792 277.716198,27 278.844798,27 C279.562997,27 280.486397,26.5896 281.974097,25.1874 C283.000886,24.2119507 286.908105,20.7703139 288.99579,18.9044583 C288.85604,19.6300035 288.751611,20.3790642 288.625997,21.0834002 C288.472097,21.8871001 288.335297,22.5027001 288.164297,23.0157001 C285.975497,23.5971001 283.957697,23.9904001 283.752497,25.1703 C283.478897,26.658 284.983697,27 286.043897,27 C287.788097,27 289.532297,26.4357 290.695097,23.4432001 C292.918097,22.3659001 296.286797,19.8522002 297.825797,17.5437003 C297.962597,17.3214003 298.082297,16.0389003 297.671897,16.3809003 C295.175297,19.6299002 292.952297,21.1689002 291.156797,21.9726001 C291.259397,21.5964001 291.361997,21.1860002 291.430397,20.7585002 L292.114397,17.3385003 C292.114397,17.3385003 295.260797,14.6538003 292.268297,14.8590003 C290.841551,14.9568344 290.05617,15.7660005 289.573009,16.8769306 Z M203.963899,13.4568004 C202.9208,13.4568004 202.442,12.6189004 202.9037,11.5758004 C203.3825,10.5327004 204.596599,9.67770046 205.639699,9.67770046 C206.699899,9.67770046 207.161599,10.5327004 206.699899,11.5758004 C206.238199,12.6189004 205.006999,13.4568004 203.963899,13.4568004 Z M230.981899,24.2982001 C231.871099,24.2982001 233.478499,22.7934001 234.572899,20.9466002 C235.684399,19.0998002 235.855399,17.5950002 234.983299,17.5950002 C234.094099,17.5950002 232.486699,19.0998002 231.375199,20.9466002 C230.280799,22.7934001 230.109799,24.2982001 230.981899,24.2982001 Z M242.302098,24.2982001 C243.191298,24.2982001 244.798698,22.7934001 245.893098,20.9466002 C247.004598,19.0998002 247.175598,17.5950002 246.303498,17.5950002 C245.414298,17.5950002 243.806898,19.0998002 242.695398,20.9466002 C241.600999,22.7934001 241.429999,24.2982001 242.302098,24.2982001 Z M257.110698,13.4568004 C258.153798,13.4568004 259.384998,12.6189004 259.846698,11.5758004 C260.308398,10.5327004 259.846698,9.67770046 258.786498,9.67770046 C257.743398,9.67770046 256.529298,10.5327004 256.050498,11.5758004 C255.588798,12.6189004 256.067598,13.4568004 257.110698,13.4568004 Z M263.762598,17.5950002 C262.873398,17.5950002 261.265998,19.0827002 260.154498,20.9466002 C260.120298,21.0321002 260.068998,21.1005002 260.017698,21.1860002 C260.855598,21.8358001 261.813198,21.1860002 262.616898,20.5191002 C263.711298,19.5957002 264.634698,17.5950002 263.762598,17.5950002 Z M285.650597,25.5294 C285.530897,26.1621 286.385897,26.0253 286.813397,25.4439 C287.018597,25.1703 287.240897,24.9309001 287.463197,24.5889001 C286.471397,24.8967001 285.718997,25.1703 285.650597,25.5294 Z" transform="translate(-185 -9)"/>
</svg>
