<svg id="Layer_1" xmlns="http://www.w3.org/2000/svg" viewBox="0 0 200 24.7">
  <style>
    .st0{fill:#41444c}
  </style>
  <path class="st0" d="M17.5 16.9c-.6-3.9-4.6-5.3-7.3-6.2l-.2-.1c-.2-.1-.5-.2-.7-.2-2.6-.9-4.5-1.7-4.7-3.5-.1-1.1.2-2 .9-2.7.8-.9 2.2-1.3 3.9-1.3 3.1.1 4.7 1.9 4.8 2 .5.6 1.3.7 1.9.2.6-.5.7-1.3.2-1.9-.1-.1-2.4-3-6.8-3.1C7 .1 4.9.9 3.6 2.3 2.4 3.5 1.8 5.2 2 7.1c.3 3.7 4 5 6.4 5.8.2.1.5.1.7.2l.3.1c2.3.8 5.2 1.8 5.5 4.1.2 1.2-.1 2.2-.7 3-.9 1.1-2.7 1.6-4.8 1.6-3.6-.1-5.4-2.2-5.5-2.3-.5-.6-1.3-.7-1.9-.2-.6.5-.7 1.3-.2 1.9.1.1 2.6 3.3 7.5 3.4h.2c2.8 0 5.2-.9 6.6-2.5 1.2-1.5 1.7-3.3 1.4-5.3zM108.8 16.9c-.6-3.9-4.6-5.3-7.3-6.2l-.3-.1c-.2-.1-.5-.2-.7-.2-2.5-.9-4.4-1.7-4.5-3.5-.1-1.1.2-2 .9-2.7.8-.9 2.2-1.3 3.9-1.3 3.1.1 4.7 1.9 4.8 2 .5.6 1.3.7 1.9.2.6-.5.7-1.3.2-1.9-.1-.1-2.4-3-6.8-3.1-2.5 0-4.5.7-5.9 2.1-1.2 1.2-1.7 2.9-1.6 4.8.3 3.7 4 5 6.4 5.8.2.1.5.2.7.2l.3.1c2.3.8 5.2 1.8 5.5 4.1.2 1.2-.1 2.2-.7 3-.9 1.1-2.7 1.6-4.8 1.6-3.6-.1-5.4-2.2-5.5-2.3-.5-.6-1.3-.7-1.9-.2-.6.5-.7 1.3-.2 1.9.1.1 2.6 3.3 7.5 3.4h.2c2.8 0 5.2-.9 6.6-2.5 1.1-1.4 1.6-3.2 1.3-5.2zM68.5 21.8H57.4V1.7c0-.7-.6-1.3-1.3-1.3-.7 0-1.3.6-1.3 1.3v21.4c0 .7.6 1.3 1.3 1.3h12.5c.7 0 1.3-.6 1.3-1.3-.1-.7-.7-1.3-1.4-1.3zM46.4.4C45.6.4 45 1 45 1.7v21.4c0 .7.6 1.3 1.3 1.3.7 0 1.3-.6 1.3-1.3V1.7c.1-.7-.5-1.3-1.2-1.3zM87.7 21.8H76.5V1.7c0-.7-.6-1.3-1.3-1.3-.7 0-1.3.6-1.3 1.3v21.4c0 .7.6 1.3 1.3 1.3h12.5c.7 0 1.3-.6 1.3-1.3 0-.7-.6-1.3-1.3-1.3zM127.7.4c-.7 0-1.3.6-1.3 1.3v9.5h-10.8V1.7c0-.7-.6-1.3-1.3-1.3-.7 0-1.3.6-1.3 1.3v21.4c0 .7.6 1.3 1.3 1.3.7 0 1.3-.6 1.3-1.3v-9.3h10.8v9.3c0 .7.6 1.3 1.3 1.3.7 0 1.3-.6 1.3-1.3V1.7c0-.7-.6-1.3-1.3-1.3zM155 22.6l-9-21.4v-.1V1 .9.8.7.6h-.1-.1-.1-.1-.1-.1-.1-.1-.1-.1c-.1 0-.2 0-.3.1h-.1-.1-.1v.4l-9 21.4c-.3.7 0 1.5.7 1.8.2.1.3.1.5.1.5 0 1-.3 1.2-.8l2.4-5.7h10.7l2.4 5.7c.2.5.7.8 1.2.8.2 0 .3 0 .5-.1-.1-.2.3-1 0-1.7zm-14.5-7.3l4.2-10.1 4.2 10.1h-8.4zM176.1 22.5l-4.4-7.4c1.6-1.1 4.2-3.4 4.2-7 0-4.9-3.1-7.8-8.4-7.8h-6.1c-.7 0-1.3.6-1.3 1.3V23c0 .7.6 1.3 1.3 1.3.7 0 1.3-.6 1.3-1.3v-7h6.3l4.7 7.9c.3.4.7.7 1.2.7.2 0 .5-.1.7-.2.7-.5.9-1.3.5-1.9zm-6.5-9.2h-6.8V3.1h4.7c3.8 0 5.7 1.7 5.7 5.1 0 2.8-2.8 4.6-3.6 5.1zM197.2 21.8h-11.8v-8h9.9c.7 0 1.3-.6 1.3-1.3 0-.7-.6-1.3-1.3-1.3h-9.9v-8h11.8c.7 0 1.3-.6 1.3-1.3 0-.7-.6-1.3-1.3-1.3H184c-.7 0-1.3.6-1.3 1.3v21.4c0 .7.6 1.3 1.3 1.3h13.1c.7 0 1.3-.6 1.3-1.3.1-.9-.5-1.5-1.2-1.5zM39.6 22.4l-8.4-12.1 7.4-7.6c.5-.5.5-1.4 0-1.9s-1.4-.5-1.9 0L25.4 12.3V1.7c0-.7-.6-1.3-1.3-1.3-.7 0-1.3.6-1.3 1.3v21.4c0 .7.6 1.3 1.3 1.3.7 0 1.3-.6 1.3-1.3v-7l3.8-3.9 8.1 11.7c.3.4.7.6 1.1.6.3 0 .5-.1.8-.2.6-.5.8-1.3.4-1.9z"/>
</svg>